<?xml version="1.0" encoding="UTF-8"?>
<svg viewBox="0 0 744.09448819 1052.3622047" xmlns="http://www.w3.org/2000/svg" xmlns:xlink="http://www.w3.org/1999/xlink">
 <defs>
  <linearGradient id="a">
   <stop stop-color="#fff" offset="0"/>
   <stop stop-color="#fff" stop-opacity="0" offset="1"/>
  </linearGradient>
  <linearGradient id="i">
   <stop stop-color="#999" offset="0"/>
   <stop stop-color="#999" stop-opacity="0" offset="1"/>
  </linearGradient>
  <linearGradient id="l" x1="46.941" x2="30" y1="396.51" y2="371.65" gradientUnits="userSpaceOnUse">
   <stop stop-color="#b7bec8" offset="0"/>
   <stop stop-color="#b7bec8" stop-opacity="0" offset="1"/>
  </linearGradient>
  <linearGradient id="k" x1="-74.793" x2="-126.58" gradientUnits="userSpaceOnUse">
   <stop stop-color="#91d3ef" offset="0"/>
   <stop stop-color="#91d3ef" stop-opacity="0" offset="1"/>
  </linearGradient>
  <linearGradient id="j" x1="-79.297" x2="-99.392" y1="823.06" y2="817.33" gradientUnits="userSpaceOnUse">
   <stop stop-color="#67c8de" offset="0"/>
   <stop stop-color="#67c8de" stop-opacity="0" offset="1"/>
  </linearGradient>
  <linearGradient id="c">
   <stop stop-color="#ccc" offset="0"/>
   <stop stop-color="#ccc" stop-opacity="0" offset="1"/>
  </linearGradient>
  <radialGradient id="g" cx="30" cy="371.65" r="35" gradientUnits="userSpaceOnUse">
   <stop offset="0"/>
   <stop stop-opacity="0" offset="1"/>
  </radialGradient>
  <radialGradient id="m" cx="80.388" cy="220.65" r="90.386" gradientTransform="matrix(2.3447 .20547 -.03504 .39991 64.959 -166.68)" gradientUnits="userSpaceOnUse">
   <stop stop-color="#00aad4" offset="0"/>
   <stop stop-color="#37abc8" stop-opacity="0" offset="1"/>
  </radialGradient>
  <radialGradient id="b" cx="-131.96" cy="753.87" r="24.643" gradientTransform="matrix(1 -1.087 .79993 .73593 -595.72 44.493)" gradientUnits="userSpaceOnUse">
   <stop stop-color="#4d4d4d" offset="0"/>
   <stop stop-color="#4d4d4d" stop-opacity="0" offset="1"/>
  </radialGradient>
  <radialGradient id="w" cx="-127.55" cy="766.9" r="43.942" gradientTransform="matrix(-1 2.3218 -1.0662 -.45922 541.65 1389.6)" gradientUnits="userSpaceOnUse">
   <stop stop-color="#41aac2" offset="0"/>
   <stop stop-color="#41aac2" stop-opacity="0" offset="1"/>
  </radialGradient>
  <radialGradient id="v" cx="207.61" cy="688.36" r="18.111" gradientTransform="matrix(-2.6224 -3.4762 1.9859 -1.4982 -321.53 2221.8)" gradientUnits="userSpaceOnUse">
   <stop stop-color="#51b6cd" offset="0"/>
   <stop stop-color="#51b6cd" stop-opacity="0" offset="1"/>
  </radialGradient>
  <radialGradient id="s" cx="205.52" cy="856.45" r="9.6429" gradientTransform="matrix(.11105 -27.407 14.148 .05732 -11640 6265.9)" gradientUnits="userSpaceOnUse">
   <stop stop-color="#92d1e0" stop-opacity=".63462" offset="0"/>
   <stop stop-color="#92d1e0" stop-opacity="0" offset="1"/>
  </radialGradient>
  <radialGradient id="e" cx="166.31" cy="843.51" r="18.183" gradientTransform="matrix(1.6309 -.5471 .29153 .86907 -350.84 200.52)" gradientUnits="userSpaceOnUse">
   <stop stop-color="#b3b3b3" offset="0"/>
   <stop stop-color="#b3b3b3" stop-opacity="0" offset="1"/>
  </radialGradient>
  <radialGradient id="o" cx="561.15" cy="624.32" r="29.8" gradientTransform="matrix(-1.6271 -4.8483 2.6517 -.88992 -155.54 3931.6)" gradientUnits="userSpaceOnUse">
   <stop stop-color="#57bad1" offset="0"/>
   <stop stop-color="#57bad1" stop-opacity="0" offset="1"/>
  </radialGradient>
  <radialGradient id="u" cx="10.895" cy="126.12" r="173.75" gradientTransform="matrix(3.1699 -1.0244 .41555 1.2859 -4.112 -45.173)" gradientUnits="userSpaceOnUse" xlink:href="#a"/>
  <radialGradient id="t" cx="100.33" cy="179.8" r="4.0406" gradientTransform="matrix(.54545 -6.1622 1.6726 .20937 -255.12 763.11)" gradientUnits="userSpaceOnUse" xlink:href="#c"/>
  <radialGradient id="y" cx="-39.906" cy="880.29" r="173.84" gradientTransform="matrix(2.5654 -1.0614 .56372 1.3722 -125.14 -614.86)" gradientUnits="userSpaceOnUse" xlink:href="#a"/>
  <radialGradient id="x" cx="-111.43" cy="710.54" r="148.63" gradientTransform="matrix(1.9094 .0658 -.00352 .10222 401.7 426.66)" gradientUnits="userSpaceOnUse" xlink:href="#a"/>
  <radialGradient id="h" cx="91.731" cy="893.76" r="37.962" gradientTransform="matrix(-1.1901 -5.8604 3.17 -1.1649 -2777.9 2626.1)" gradientUnits="userSpaceOnUse" xlink:href="#a"/>
  <radialGradient id="f" cx="102.71" cy="805.92" r="31.673" gradientTransform="matrix(-.02305 -1.1851 -.31806 -.03417 77.625 1272.8)" gradientUnits="userSpaceOnUse" xlink:href="#c"/>
  <radialGradient id="r" cx="-218.57" cy="1108.9" r="47.951" gradientTransform="matrix(1.3718 -1.8497 .8265 .66438 -844.45 5.0834)" gradientUnits="userSpaceOnUse" xlink:href="#i"/>
  <radialGradient id="p" cx="8.0812" cy="1089.1" r="83.312" gradientTransform="matrix(1.6412 -1.6005 .86236 .88431 -758.48 -43.237)" gradientUnits="userSpaceOnUse" xlink:href="#a"/>
  <radialGradient id="q" cx="-218.57" cy="1108.9" r="47.951" gradientTransform="matrix(1.3718 -1.8497 .8265 .66438 -844.45 5.0834)" gradientUnits="userSpaceOnUse" xlink:href="#i"/>
  <radialGradient id="d" cx="-416.75" cy="1068" r="153.61" gradientTransform="matrix(1.731 .17323 -.02221 .28125 328.38 907.43)" gradientUnits="userSpaceOnUse" xlink:href="#c"/>
  <radialGradient id="n" cx="252.54" cy="512.46" r="135.36" gradientTransform="matrix(1.8806 .0085 -.00044286 .09805 -222.16 470.65)" gradientUnits="userSpaceOnUse" xlink:href="#a"/>
 </defs>
 <g transform="matrix(-.8294 0 0 .75159 -20.273 81.361)" stroke="#000" stroke-width="5.0159">
  <path d="m-418.44 1141.3-1.6883-19.007 159.55-0.9503c23.777 7.4445 0.12773-17.035 141.4 30.887l1.2662 13.78-203.44 37.064-97.078-61.774z" fill="#b3b3b3"/>
  <path d="m-418.44 1141.3-1.6883-19.007 159.55-0.9503c23.777 7.4445 0.12773-17.035 141.4 30.887l1.2662 13.78-203.44 37.064-97.078-61.774z" fill="url(#d)"/>
  <path d="m-418.44 1122.3 158.7-15.206 141.82 43.717-204.29 32.312-96.234-60.824z" fill="#808080"/>
 </g>
 <g transform="matrix(.84615 0 0 .75159 713.78 70.901)" stroke="#000" stroke-width="5.0159">
  <path d="m-418.44 1141.3-1.6883-19.007 159.55-0.9503c23.777 7.4445 0.12773-17.035 141.4 30.887l1.2662 13.78-203.44 37.064-97.078-61.774z" fill="#b3b3b3"/>
  <path d="m-418.44 1141.3-1.6883-19.007 159.55-0.9503c23.777 7.4445 0.12773-17.035 141.4 30.887l1.2662 13.78-203.44 37.064-97.078-61.774z" fill="url(#d)"/>
  <path d="m-418.44 1122.3 158.7-15.206 141.82 43.717-204.29 32.312-96.234-60.824z" fill="#808080"/>
 </g>
 <path d="m434.37 726.7c-45.189 0-81.812 18.533-81.812 41.406 0 7.251 3.6882 14.072 10.156 20-6.468 5.9278-10.156 12.749-10.156 20s3.6882 14.072 10.156 20c-6.468 5.9278-10.156 12.749-10.156 20s3.6882 14.072 10.156 20c-6.468 5.9278-10.156 12.749-10.156 20 0 22.874 36.623 41.406 81.812 41.406s81.812-18.533 81.812-41.406c0-7.2509-3.6882-14.072-10.156-20 6.468-5.9277 10.156-12.749 10.156-20s-3.6882-14.072-10.156-20c6.468-5.9277 10.156-12.749 10.156-20s-3.6882-14.072-10.156-20c6.468-5.9277 10.156-12.749 10.156-20 0-22.874-36.623-41.406-81.812-41.406z" fill="#666" fill-rule="evenodd" stroke="#100606" stroke-width="4"/>
 <path d="m431.58 726.1c-45.189 0-81.812 18.533-81.812 41.406 0 5.8453 2.401 11.394 6.7188 16.438h150.19c4.3177-5.0438 6.7188-10.592 6.7188-16.438 0-22.874-36.623-41.406-81.812-41.406z" fill="#333" fill-rule="evenodd"/>
 <path d="m247.14 730.96c-45.189 0-81.812 18.533-81.812 41.406 0 7.251 3.6882 14.072 10.156 20-6.468 5.9278-10.156 12.749-10.156 20s3.6882 14.072 10.156 20c-6.468 5.9278-10.156 12.749-10.156 20s3.6882 14.072 10.156 20c-6.468 5.9278-10.156 12.749-10.156 20 0 22.874 36.623 41.406 81.812 41.406s81.812-18.533 81.812-41.406c0-7.2509-3.6882-14.072-10.156-20 6.468-5.9277 10.156-12.749 10.156-20s-3.6882-14.072-10.156-20c6.468-5.9277 10.156-12.749 10.156-20s-3.6882-14.072-10.156-20c6.468-5.9277 10.156-12.749 10.156-20 0-22.874-36.623-41.406-81.812-41.406z" fill="#1a1a1a" fill-opacity=".33235" stroke="#100606" stroke-width="4"/>
 <path d="m247.37 732.98c-45.189 0-81.812 18.533-81.812 41.406 0 7.251 3.6882 14.072 10.156 20-6.468 5.9278-10.156 12.749-10.156 20s3.6882 14.072 10.156 20c-6.468 5.9278-10.156 12.749-10.156 20s3.6882 14.072 10.156 20c-6.468 5.9278-10.156 12.749-10.156 20 0 22.874 36.623 41.406 81.812 41.406s81.812-18.533 81.812-41.406c0-7.2509-3.6882-14.072-10.156-20 6.468-5.9277 10.156-12.749 10.156-20s-3.6882-14.072-10.156-20c6.468-5.9277 10.156-12.749 10.156-20s-3.6882-14.072-10.156-20c6.468-5.9277 10.156-12.749 10.156-20 0-22.874-36.623-41.406-81.812-41.406z" fill="url(#p)" stroke="#261c1c" stroke-width="3"/>
 <path transform="matrix(.88715 -.45827 .46999 .87499 187.07 -231.1)" d="m-76.611 819.25h23.988a25.968 25.968 0 0 1 25.968 25.968v200.44a25.968 25.968 0 0 1 -25.968 25.968h-23.988a25.968 25.968 0 0 1 -25.968 -25.968v-200.44a25.968 25.968 0 0 1 25.968 -25.968" fill="#67c8de" stroke="#000" stroke-width="3.0004"/>
 <path transform="matrix(.88715 -.45827 .46999 .87499 187.07 -231.1)" d="m-76.611 819.25h23.988a25.968 25.968 0 0 1 25.968 25.968v200.44a25.968 25.968 0 0 1 -25.968 25.968h-23.988a25.968 25.968 0 0 1 -25.968 -25.968v-200.44a25.968 25.968 0 0 1 25.968 -25.968" fill="url(#h)"/>
 <g transform="matrix(.92308 0 0 .89048 616.32 -150.89)">
  <path d="m-85 751.65c0 21.302-16.629 38.571-37.143 38.571s-37.143-17.269-37.143-38.571 16.629-38.571 37.143-38.571 37.143 17.269 37.143 38.571z"/>
  <path transform="translate(.2451,-.95939)" d="m-100 742.72c0 14.793-11.033 26.786-24.643 26.786s-24.643-11.992-24.643-26.786 11.033-26.786 24.643-26.786 24.643 11.992 24.643 26.786z" fill="url(#b)"/>
 </g>
 <g transform="translate(-69.559 538.63)">
  <path transform="translate(326.75 -215.06)" d="m256.58 153.33c0 66.947-77.789 121.22-173.75 121.22s-173.75-54.271-173.75-121.22 77.789-121.22 173.75-121.22 173.75 54.271 173.75 121.22z" fill="#87cdde" stroke="#282e2f" stroke-width="3"/>
  <path d="m247.14-23.352s-15.714-30-10-54.286c3.7306-15.855 7.3788-33.856 12.857-37.143 14.286-8.5714 20.313 27.472 37.143 32.857l121.43 28.571 7.1429 10-168.57 20z" fill="url(#m)"/>
  <path transform="matrix(.99589 0 0 1 326.55 -214.05)" d="m256.58 153.33c0 66.947-77.789 121.22-173.75 121.22s-173.75-54.271-173.75-121.22 77.789-121.22 173.75-121.22 173.75 54.271 173.75 121.22z" fill="url(#u)" opacity=".90865"/>
 </g>
 <path transform="matrix(-.89143 0 0 .95092 381.19 79.833)" d="m65 371.65c0 18.935-15.67 34.286-35 34.286s-35-15.35-35-34.286 15.67-34.286 35-34.286 35 15.35 35 34.286z" fill="#025" stroke="#a9cff4" stroke-width="4.7902"/>
 <path transform="matrix(-.75251 0 0 .77236 378.99 146.53)" d="m65 371.65c0 18.935-15.67 34.286-35 34.286s-35-15.35-35-34.286 15.67-34.286 35-34.286 35 15.35 35 34.286z" fill="#fff"/>
 <path transform="matrix(-.75251 0 0 .77236 378.18 146.52)" d="m65 371.65c0 18.935-15.67 34.286-35 34.286s-35-15.35-35-34.286 15.67-34.286 35-34.286 35 15.35 35 34.286z" fill="url(#l)" stroke="url(#g)"/>
 <g transform="translate(455.85 -400.81)">
  <path transform="matrix(-.89934 0 0 .92684 -131.26 522.2)" d="m-37.143 336.65c0 7.1008-5.4365 12.857-12.143 12.857s-12.143-5.7563-12.143-12.857 5.4365-12.857 12.143-12.857 12.143 5.7563 12.143 12.857z" fill="#374548"/>
  <path transform="matrix(-.89934 0 0 1.1328 -133.31 450.63)" d="m-38.571 335.93c0 3.5504-3.5178 6.4286-7.8571 6.4286s-7.8571-2.8782-7.8571-6.4286 3.5178-6.4286 7.8571-6.4286 7.8571 2.8782 7.8571 6.4286z" fill="#d7eef4"/>
  <path d="m-100.31 807.07c11.924 0 22.085 8.2996 25.996 19.939-1.7118-0.53721-3.5151-0.83499-5.3825-0.83499h-44.598c-0.57876 0-1.1494 0.0127-1.7153 0.0668 4.0965-11.226 14.046-19.171 25.7-19.171z" fill="#abe0ec"/>
  <path d="m-126.06 825.29 50.751-1e-5 -50.751 1e-5z" fill="#acf" stroke="url(#k)" stroke-width="1.9565"/>
  <path d="m-99.54 807.36c11.924 0 22.085 8.2996 25.996 19.939-1.7118-0.53721-3.5151-0.83498-5.3825-0.83498h-44.598c-0.57876 0-1.1494 0.0127-1.7153 0.0668 4.0965-11.226 14.046-19.171 25.7-19.171z" fill="url(#j)"/>
 </g>
 <path transform="matrix(-.72971 0 0 .84007 458.87 123.22)" d="m65 371.65c0 18.935-15.67 34.286-35 34.286s-35-15.35-35-34.286 15.67-34.286 35-34.286 35 15.35 35 34.286z" fill="#025" stroke="#a9cff4" stroke-width="4.7902"/>
 <path transform="matrix(-.61599 0 0 .68233 455.45 181.84)" d="m65 371.65c0 18.935-15.67 34.286-35 34.286s-35-15.35-35-34.286 15.67-34.286 35-34.286 35 15.35 35 34.286z" fill="#fff"/>
 <path transform="matrix(-.61599 0 0 .68233 455.45 181.84)" d="m65 371.65c0 18.935-15.67 34.286-35 34.286s-35-15.35-35-34.286 15.67-34.286 35-34.286 35 15.35 35 34.286z" fill="url(#l)" stroke="url(#g)"/>
 <g transform="matrix(.81859 0 0 .88343 518.33 -301.84)">
  <path transform="matrix(-.89934 0 0 .92684 -131.26 522.2)" d="m-37.143 336.65c0 7.1008-5.4365 12.857-12.143 12.857s-12.143-5.7563-12.143-12.857 5.4365-12.857 12.143-12.857 12.143 5.7563 12.143 12.857z" fill="#374548"/>
  <path transform="matrix(-.89934 0 0 1.1328 -133.31 450.63)" d="m-38.571 335.93c0 3.5504-3.5178 6.4286-7.8571 6.4286s-7.8571-2.8782-7.8571-6.4286 3.5178-6.4286 7.8571-6.4286 7.8571 2.8782 7.8571 6.4286z" fill="#d7eef4"/>
  <path d="m-100.31 807.07c11.924 0 22.085 8.2996 25.996 19.939-1.7118-0.53721-3.5151-0.83499-5.3825-0.83499h-44.598c-0.57876 0-1.1494 0.0127-1.7153 0.0668 4.0965-11.226 14.046-19.171 25.7-19.171z" fill="#abe0ec"/>
  <path d="m-126.06 825.29 50.751-1e-5 -50.751 1e-5z" fill="#acf" stroke="url(#k)" stroke-width="1.9565"/>
  <path d="m-99.54 807.36c11.924 0 22.085 8.2996 25.996 19.939-1.7118-0.53721-3.5151-0.83498-5.3825-0.83498h-44.598c-0.57876 0-1.1494 0.0127-1.7153 0.0668 4.0965-11.226 14.046-19.171 25.7-19.171z" fill="url(#j)"/>
 </g>
 <path transform="translate(96.503 282.02)" d="m110.11 176.05c0 6.4158-3.2789 11.617-7.3236 11.617s-7.3236-5.201-7.3236-11.617 3.2789-11.617 7.3236-11.617 7.3236 5.201 7.3236 11.617z" fill="#666"/>
 <path transform="matrix(1.375 0 0 1.1562 58.625 253.09)" d="m106.57 177.06c0 4.4631-1.809 8.0812-4.0406 8.0812s-4.0406-3.6181-4.0406-8.0812 1.809-8.0812 4.0406-8.0812 4.0406 3.6181 4.0406 8.0812z" fill="url(#t)"/>
 <path d="m165.67 489.35v265.72s73.47 40.406 170.81 42.426 176.87-42.426 176.87-42.426v-265.72h-3.3458c-9.8624 2.9906-91.809 25.218-161.62 23.206-49.002-1.4122-150.22-18.178-176.68-23.206h-6.0411z" fill="#67c8de" stroke="#000" stroke-width="3"/>
 <path d="m170.72 492.46-2.0203 262.02s71.126 39.086 166.77 41.078 176.87-41.078 176.87-41.078v-262.02h-3.2875c-9.6904 2.9489-90.208 24.867-158.81 22.883-48.147-1.3926-147.6-17.925-173.6-22.883h-5.9358z" fill="url(#y)"/>
 <path d="m165.28 488.24c-0.0388 12.383 11.072 14.898 17.664 16.729 44.781 12.44 110 13.689 154.73 14.99 63.028 1.8323 151.63-8.9207 173.78-12.97l0.61062-18.749c-184.61 27.475-346.64-44.038-346.78 0z" fill="#465861" fill-opacity=".85882" stroke="#000"/>
 <path d="m165.28 488.24c-0.0388 12.383 11.072 14.898 17.664 16.729 44.781 12.44 110 13.689 154.73 14.99 63.028 1.8323 151.63-8.9207 173.78-12.97l0.61062-18.749c-184.61 27.475-346.64-44.038-346.78 0z" fill="#465861" fill-opacity=".85882" stroke="#000" stroke-width="2"/>
 <path d="m168.68 487.11c-0.0334 8.9226 9.5272 10.734 15.199 12.054 38.532 8.9631 91.792 6.2923 130.28 7.2292 54.233 1.3202 105.76 1.4892 148.1-4.345 2.4987-0.34429 5.1779-7.3334 2.6683-7.0809-129.41 13.023-296.13-39.588-296.25-7.8571z" fill="url(#x)" opacity=".625"/>
 <path d="m178.52 509.05c-4.207 0-8.2564 0.61111-12.094 1.75v77.406c0 1.3487-0.11614 2.6766-0.3125 3.9688 3.9282 1.1988 8.0858 1.8438 12.406 1.8438 23.464 0 42.5-19.004 42.5-42.469s-19.036-42.5-42.5-42.5z" fill="#808080" stroke="#000" stroke-width="3.8297"/>
 <g transform="matrix(1 0 0 .97381 297.73 -183.14)">
  <path d="m-85 751.65c0 21.302-16.629 38.571-37.143 38.571s-37.143-17.269-37.143-38.571 16.629-38.571 37.143-38.571 37.143 17.269 37.143 38.571z"/>
  <path transform="translate(.2451,-.95939)" d="m-100 742.72c0 14.793-11.033 26.786-24.643 26.786s-24.643-11.992-24.643-26.786 11.033-26.786 24.643-26.786 24.643 11.992 24.643 26.786z" fill="url(#b)"/>
 </g>
 <path d="m510.01 487.67-22.371 2.8825c14.909-14.575-2.7557-66.301-13.132-80.43 25.292 24.952 34.738 39.464 35.503 77.547z" fill="url(#v)" opacity=".47596"/>
 <path d="m191.16 765.69c-2.0203-0.50507-24.244-10.607-24.244-10.607v-155.56l38.891-29.294-14.647 195.46z" fill="#999" opacity=".37981"/>
 <g transform="translate(292.86 -212.86)">
  <path transform="matrix(.90413 .4238 -.40702 .906 276.94 30.013)" d="m-76.611 819.25h23.988a25.968 25.968 0 0 1 25.968 25.968v200.44a25.968 25.968 0 0 1 -25.968 25.968h-23.988a25.968 25.968 0 0 1 -25.968 -25.968v-200.44a25.968 25.968 0 0 1 25.968 -25.968" fill="#67c8de" stroke="#000" stroke-width="3.0004"/>
  <path transform="matrix(.90413 .4238 -.40702 .906 276.94 30.013)" d="m-76.611 819.25h23.988a25.968 25.968 0 0 1 25.968 25.968v200.44a25.968 25.968 0 0 1 -25.968 25.968h-23.988a25.968 25.968 0 0 1 -25.968 -25.968v-200.44a25.968 25.968 0 0 1 25.968 -25.968" fill="url(#h)"/>
  <path d="m-104.55 755.38-27.779-12.627c-28.838-10.184-47.864 71.612-60.104 100.51 0 0 40.076-80.917 51.013-89.398 11.636-9.024 35.86 2.5254 36.871 1.5152z" fill="url(#w)"/>
 </g>
 <g transform="matrix(.84615 0 0 .75159 182.76 178.62)">
  <path d="m-85 751.65c0 21.302-16.629 38.571-37.143 38.571s-37.143-17.269-37.143-38.571 16.629-38.571 37.143-38.571 37.143 17.269 37.143 38.571z"/>
  <path transform="translate(.2451,-.95939)" d="m-100 742.72c0 14.793-11.033 26.786-24.643 26.786s-24.643-11.992-24.643-26.786 11.033-26.786 24.643-26.786 24.643 11.992 24.643 26.786z" fill="url(#b)"/>
 </g>
 <path d="m490.71 492.36 18.571-1.4286-1.4286 265-17.857 7.8571 0.71429-271.43z" fill="url(#s)"/>
 <g transform="translate(278.57 -312.86)">
  <path d="m-202.34 1053.3-35.688 1.2187s-17.383 25.583-13.5 65.688c3.7986 39.228 43.812 42.625 43.812 42.625s3.8246-30.372-0.71875-30.813c-18.212-1.7654-18.999-26.079-13.562-37.156 3.5923-7.3197 13.573-9.7317 18.469-10.5 1.3261 0.1079 15.138 1.4435 19.406 10.844 5.0371 11.093 4.3433 35.451-12.531 37.219-4.2096 0.441-0.6875 30.844-0.6875 30.844s37.105-3.4047 40.625-42.687c3.5982-40.16-12.531-65.781-12.531-65.781l-33.062-1.2187v0.1562l-0.0312-0.4375z" fill="#666" stroke="#261c1c" stroke-width="4.0161"/>
  <path d="m-191.85 1085.1c7.6129 2.5826 14.634 8.1649 14.938 17.98s-5.4976 21.477-8.837 24.207 6.4782-1.9615 8.7396-5.2573c3.9312-5.7297 7.6724-17.594 4.7346-23.998s-20.3-14.226-19.575-12.931z" fill="url(#f)"/>
  <path d="m-204.07 1057.4-32.498 1.1554s-15.83 24.254-12.293 62.274c3.459 37.19 39.897 40.41 39.897 40.41s3.4827-28.794-0.65451-29.212c-16.585-1.6736-17.301-24.724-12.35-35.225 3.2712-6.9394 12.36-9.226 16.818-9.9544 1.2076 0.1022 13.785 1.3685 17.672 10.28 4.5869 10.517 3.9551 33.609-11.411 35.285-3.8333 0.4181-0.62604 29.241-0.62604 29.241s33.789-3.2278 36.994-40.469c3.2766-38.074-11.411-62.363-11.411-62.363l-30.107-1.1553v0.148l-0.0284-0.4147z" fill="url(#r)"/>
  <path transform="matrix(-.02092 -.67489 -.7557 -.07423 432.74 1251)" d="m195.97 832.65c0 9.2052-8.1407 16.668-18.183 16.668s-18.183-7.4623-18.183-16.668 8.1407-16.668 18.183-16.668 18.183 7.4623 18.183 16.668z" fill="url(#e)"/>
 </g>
 <path d="m174.04 905.39c9.2548 14.565 33.407 21.07 49.497 14.142-18.752 1.8422-32.931-8.1692-49.497-14.142z" fill="#666"/>
 <path d="m181.08 828.86s29.318 16.953 60.749 17.551 73.33-9.8051 73.33-9.8051-58.848 5.4057-78.801 3.8573-58.073-13.15-55.278-11.603z" fill="#666"/>
 <path d="m182.32 875.07s29.318 16.953 60.749 17.551 73.33-9.8051 73.33-9.8051-58.848 5.4057-78.801 3.8573-58.073-13.15-55.278-11.603z" fill="#666"/>
 <path d="m365.21 904.45c9.2548 14.565 33.407 21.07 49.497 14.142-18.752 1.8421-32.931-8.1692-49.497-14.142z" fill="#333"/>
 <path d="m372.25 827.92s29.318 16.953 60.749 17.551 73.33-9.805 73.33-9.805-58.848 5.4056-78.801 3.8572-58.073-13.15-55.278-11.603z" fill="#333"/>
 <path d="m373.48 874.14s29.318 16.953 60.749 17.551 73.33-9.8051 73.33-9.8051-58.848 5.4057-78.801 3.8573-58.073-13.15-55.278-11.603z" fill="#333"/>
 <path transform="matrix(.84615 0 0 .75159 738.5 157.38)" d="m-85 751.65c0 21.302-16.629 38.571-37.143 38.571s-37.143-17.269-37.143-38.571 16.629-38.571 37.143-38.571 37.143 17.269 37.143 38.571z"/>
 <path transform="matrix(.84615 0 0 .75159 740.13 155.23)" d="m-100 742.72c0 14.793-11.033 26.786-24.643 26.786s-24.643-11.992-24.643-26.786 11.033-26.786 24.643-26.786 24.643 11.992 24.643 26.786z" fill="url(#b)"/>
 <g transform="matrix(.89333 -.4494 .4494 .89333 341.44 -305.17)">
  <path d="m-202.34 1053.3-35.688 1.2187s-17.383 25.583-13.5 65.688c3.7986 39.228 43.812 42.625 43.812 42.625s3.8246-30.372-0.71875-30.813c-18.212-1.7654-18.999-26.079-13.562-37.156 3.5923-7.3197 13.573-9.7317 18.469-10.5 1.3261 0.1079 15.138 1.4435 19.406 10.844 5.0371 11.093 4.3433 35.451-12.531 37.219-4.2096 0.441-0.6875 30.844-0.6875 30.844s37.105-3.4047 40.625-42.687c3.5982-40.16-12.531-65.781-12.531-65.781l-33.062-1.2187v0.1562l-0.0312-0.4375z" fill="#666" stroke="#261c1c" stroke-width="4.0161"/>
  <path d="m-191.85 1085.1c7.6129 2.5826 14.634 8.1649 14.938 17.98s-5.4976 21.477-8.837 24.207 6.4782-1.9615 8.7396-5.2573c3.9312-5.7297 7.6724-17.594 4.7346-23.998s-20.3-14.226-19.575-12.931z" fill="url(#f)"/>
  <path d="m-204.07 1057.4-32.498 1.1554s-15.83 24.254-12.293 62.274c3.459 37.19 39.897 40.41 39.897 40.41s3.4827-28.794-0.65451-29.212c-16.585-1.6736-17.301-24.724-12.35-35.225 3.2712-6.9394 12.36-9.226 16.818-9.9544 1.2076 0.1022 13.785 1.3685 17.672 10.28 4.5869 10.517 3.9551 33.609-11.411 35.285-3.8333 0.4181-0.62604 29.241-0.62604 29.241s33.789-3.2278 36.994-40.469c3.2766-38.074-11.411-62.363-11.411-62.363l-30.107-1.1553v0.148l-0.0284-0.4147z" fill="url(#q)"/>
  <path transform="matrix(-.02092 -.67489 -.7557 -.07423 432.74 1251)" d="m195.97 832.65c0 9.2052-8.1407 16.668-18.183 16.668s-18.183-7.4623-18.183-16.668 8.1407-16.668 18.183-16.668 18.183 7.4623 18.183 16.668z" fill="url(#e)"/>
 </g>
 <path d="m515.18 590.72-1.0102-41.416c15.648 14.674 24.819-21.407 27.274-32.325 0 0-7.0711-9.0914 2.0203-5.0508s20.203 23.234 20.203 23.234 1.0102 25.254-11.112 33.335-34.345 4.0406-34.345 4.0406c12.901 30.561 30.571 70.797 46.467 108.09l-49.497-89.904z" fill="url(#o)"/>
 <path d="m507.1 510.92c-89.441 20.918-179.7 15.637-270.72 11.112 90.51 18.631 184.14 26.172 270.72-11.112z" fill="url(#n)"/>
</svg>
