<?xml version="1.0" encoding="UTF-8"?>
<svg viewBox="0 0 584.5304 831.54718" xmlns="http://www.w3.org/2000/svg" xmlns:xlink="http://www.w3.org/1999/xlink">
 <defs>
  <linearGradient id="c">
   <stop stop-color="#000200" stop-opacity=".9804" offset="0"/>
   <stop stop-color="#fd0505" offset="1"/>
  </linearGradient>
  <linearGradient id="d">
   <stop stop-color="#fd0200" stop-opacity=".9804" offset="0"/>
   <stop stop-color="#0a0505" offset="1"/>
  </linearGradient>
  <linearGradient id="i">
   <stop stop-color="#fff" stop-opacity=".4784" offset="0"/>
   <stop stop-color="#050000" stop-opacity="0" offset="1"/>
  </linearGradient>
  <linearGradient id="e">
   <stop stop-color="#fd0200" stop-opacity=".9804" offset="0"/>
   <stop stop-color="#0a0502" offset="1"/>
  </linearGradient>
  <linearGradient id="a">
   <stop stop-color="#0c75d5" offset="0"/>
   <stop offset="1"/>
  </linearGradient>
  <linearGradient id="b">
   <stop stop-color="#f50000" offset="0"/>
   <stop stop-color="#0d0502" offset="1"/>
  </linearGradient>
  <linearGradient id="bg" x1="731.47" x2="549.42" y1="222.36" y2="244.43" gradientTransform="matrix(.80273 0 0 .90005 -6.6283 -15.344)" gradientUnits="userSpaceOnUse">
   <stop stop-color="#0c257f" stop-opacity="0" offset="0"/>
   <stop stop-opacity=".9686" offset="1"/>
  </linearGradient>
  <linearGradient id="ab" x1="522.37" x2="566.6" gradientUnits="userSpaceOnUse">
   <stop stop-color="#450000" stop-opacity="0" offset="0"/>
   <stop stop-color="#fff" stop-opacity=".4039" offset="1"/>
  </linearGradient>
  <linearGradient id="y" x1="210.27" x2="241.8" gradientUnits="userSpaceOnUse">
   <stop stop-color="#fff7f5" stop-opacity=".2588" offset="0"/>
   <stop stop-color="#fff" stop-opacity="0" offset="1"/>
  </linearGradient>
  <linearGradient id="x" x1="379.73" x2="430.04" gradientUnits="userSpaceOnUse">
   <stop stop-color="#fdfdff" stop-opacity=".2078" offset="0"/>
   <stop stop-opacity=".0588" offset="1"/>
  </linearGradient>
  <linearGradient id="bx" x1="461.06" x2="390.59" y1="304.2" y2="307.86" gradientTransform="matrix(.86831 0 0 .83207 -6.6283 -15.344)" gradientUnits="userSpaceOnUse" xlink:href="#a" spreadMethod="reflect"/>
  <linearGradient id="bw" x1="372.89" x2="394.36" y1="148.18" y2="146.56" gradientTransform="matrix(.84799 0 0 .85201 -6.6283 -15.344)" gradientUnits="userSpaceOnUse" xlink:href="#b" spreadMethod="reflect"/>
  <linearGradient id="bv" x1="602.94" x2="577.93" y1="358.58" y2="343.18" gradientTransform="matrix(.73584 0 0 .98188 -6.6283 -15.344)" gradientUnits="userSpaceOnUse" xlink:href="#b" spreadMethod="reflect"/>
  <linearGradient id="bu" x1="411.26" x2="388.88" y1="562.2" y2="548.88" gradientTransform="matrix(1.3744 0 0 .5257 -6.6283 -15.344)" gradientUnits="userSpaceOnUse" xlink:href="#b" spreadMethod="reflect"/>
  <linearGradient id="bt" x1="125.56" x2="213.19" gradientUnits="userSpaceOnUse" xlink:href="#b"/>
  <linearGradient id="bs" x1="178.63" x2="212.77" gradientUnits="userSpaceOnUse" xlink:href="#b"/>
  <linearGradient id="br" x1="615.69" x2="580.95" y1="604.18" y2="600.75" gradientTransform="matrix(.73118 0 0 .98813 -6.6283 -15.344)" gradientUnits="userSpaceOnUse" xlink:href="#b" spreadMethod="reflect"/>
  <linearGradient id="bq" x1="778.66" x2="709.9" y1="276.23" y2="280.34" gradientTransform="matrix(.80273 0 0 .90005 -6.6283 -15.344)" gradientUnits="userSpaceOnUse" xlink:href="#a" spreadMethod="reflect"/>
  <linearGradient id="bp" x1="442.8" x2="376.43" y1="505.11" y2="435.79" gradientTransform="matrix(.99832 0 0 .72372 -6.6283 -15.344)" gradientUnits="userSpaceOnUse" xlink:href="#b" spreadMethod="reflect"/>
  <linearGradient id="bo" x1="593.1" x2="559.1" y1="830.31" y2="831.01" gradientTransform="matrix(.7263 0 0 .99477 -6.6283 -15.344)" gradientUnits="userSpaceOnUse" xlink:href="#e" spreadMethod="reflect"/>
  <linearGradient id="bn" x1="967.88" x2="926.6" y1="211.8" y2="206.2" gradientTransform="matrix(.59686 0 0 1.2105 -6.6283 -15.344)" gradientUnits="userSpaceOnUse" xlink:href="#a" spreadMethod="reflect"/>
  <linearGradient id="bm" x1="295.55" x2="299.6" y1="511.73" y2="448.82" gradientTransform="matrix(1.1104 0 0 .65063 -6.6283 -15.344)" gradientUnits="userSpaceOnUse" xlink:href="#a" spreadMethod="reflect"/>
  <linearGradient id="bl" x1="290.56" x2="335.93" y1="576.05" y2="576.05" gradientUnits="userSpaceOnUse" xlink:href="#a" spreadMethod="reflect"/>
  <linearGradient id="bk" x1="551.21" x2="521.62" y1="384.62" y2="365.81" gradientTransform="matrix(.70455 0 0 1.0255 -6.6283 -15.344)" gradientUnits="userSpaceOnUse" xlink:href="#a" spreadMethod="reflect"/>
  <linearGradient id="bj" x1="1033.1" x2="599.94" y1="350.22" y2="294.88" gradientTransform="matrix(.49767 0 0 1.4518 -6.6283 -15.344)" gradientUnits="userSpaceOnUse" xlink:href="#a" spreadMethod="reflect"/>
  <linearGradient id="bi" x1="1175" x2="949.47" y1="358.42" y2="315.75" gradientTransform="matrix(.57943 0 0 1.2469 -6.6283 -15.344)" gradientUnits="userSpaceOnUse" xlink:href="#a" spreadMethod="reflect"/>
  <linearGradient id="bh" x1="620.89" x2="643.83" y1="537.81" y2="521.7" gradientTransform="matrix(.80873 0 0 .89338 -6.6283 -15.344)" gradientUnits="userSpaceOnUse" xlink:href="#a"/>
  <linearGradient id="bf" x1="446.18" x2="310.28" y1="339.88" y2="209.74" gradientTransform="matrix(.86784 0 0 .83253 -6.6283 -15.344)" gradientUnits="userSpaceOnUse" xlink:href="#a" spreadMethod="reflect"/>
  <linearGradient id="be" x1="332.97" x2="469.24" y1="70.426" y2="93.94" gradientTransform="matrix(.77318 0 0 .93445 -6.6283 -15.344)" gradientUnits="userSpaceOnUse" xlink:href="#a" spreadMethod="reflect"/>
  <linearGradient id="bd" x1="952.07" x2="942.03" y1="343.08" y2="390.56" gradientTransform="matrix(.63818 0 0 1.1321 -6.6283 -15.344)" gradientUnits="userSpaceOnUse" xlink:href="#a" spreadMethod="reflect"/>
  <linearGradient id="aa" x1="522.37" x2="566.6" gradientUnits="userSpaceOnUse" xlink:href="#i"/>
  <linearGradient id="z" x1="523.48" x2="544.2" gradientUnits="userSpaceOnUse" xlink:href="#i"/>
  <linearGradient id="w" x1="27.159" x2="121.94" gradientUnits="userSpaceOnUse" xlink:href="#a"/>
  <linearGradient id="v" x1="507.76" x2="442.12" y1="837.18" y2="834.64" gradientTransform="matrix(.7907 0 0 .91375 -6.6283 -15.344)" gradientUnits="userSpaceOnUse" xlink:href="#a"/>
  <linearGradient id="u" x1="64.058" x2="102.65" gradientUnits="userSpaceOnUse" xlink:href="#a"/>
  <linearGradient id="bc" x1="73.32" x2="129.66" gradientUnits="userSpaceOnUse" xlink:href="#a"/>
  <linearGradient id="j" x1="19.535" x2="54.556" gradientUnits="userSpaceOnUse" xlink:href="#a"/>
  <linearGradient id="bb" x1="30.684" x2="75.586" gradientUnits="userSpaceOnUse" xlink:href="#a"/>
  <linearGradient id="ba" x1="73.767" x2="94.407" gradientUnits="userSpaceOnUse" xlink:href="#a"/>
  <linearGradient id="az" x1="66.004" x2="72.804" gradientUnits="userSpaceOnUse" xlink:href="#a"/>
  <linearGradient id="ay" x1="543.29" x2="488.83" y1="914.64" y2="917.01" gradientTransform="matrix(.89522 0 0 .80706 -6.6283 -15.344)" gradientUnits="userSpaceOnUse" xlink:href="#a" spreadMethod="reflect"/>
  <linearGradient id="ax" x1="405.44" x2="391.12" y1="887.74" y2="808.42" gradientTransform="matrix(.89522 0 0 .80706 -6.6283 -15.344)" gradientUnits="userSpaceOnUse" xlink:href="#a" spreadMethod="reflect"/>
  <linearGradient id="aw" x1="476.54" x2="474.12" y1="817.4" y2="858.11" gradientTransform="matrix(.7907 0 0 .91375 -6.6283 -15.344)" gradientUnits="userSpaceOnUse" xlink:href="#a" spreadMethod="reflect"/>
  <linearGradient id="av" x1="1083.2" x2="1030.8" y1="289.8" y2="309.25" gradientTransform="matrix(.41569 0 0 1.7381 -6.6283 -15.344)" gradientUnits="userSpaceOnUse" xlink:href="#b" spreadMethod="reflect"/>
  <linearGradient id="au" x1="348.28" x2="400.17" gradientUnits="userSpaceOnUse" xlink:href="#e"/>
  <linearGradient id="at" x1="807.4" x2="932.61" y1="307.16" y2="326.2" gradientTransform="matrix(.42485 0 0 1.7006 -6.6283 -15.344)" gradientUnits="userSpaceOnUse" xlink:href="#c" spreadMethod="reflect"/>
  <linearGradient id="as" x1="1497.9" x2="1526" y1="243.65" y2="242.91" gradientTransform="matrix(.28862 0 0 2.5033 -6.6283 -15.344)" gradientUnits="userSpaceOnUse" xlink:href="#a" spreadMethod="reflect"/>
  <linearGradient id="ar" x1="1573.6" x2="1151.9" y1="239.41" y2="242.2" gradientTransform="matrix(.28862 0 0 2.5033 -6.6283 -15.344)" gradientUnits="userSpaceOnUse" xlink:href="#a" spreadMethod="reflect"/>
  <linearGradient id="aq" x1="995.88" x2="820.01" y1="325.24" y2="292.14" gradientTransform="matrix(.53558 0 0 1.349 -6.6283 -15.344)" gradientUnits="userSpaceOnUse" xlink:href="#a" spreadMethod="reflect"/>
  <linearGradient id="ap" x1="904.19" x2="920.67" y1="257.4" y2="276.92" gradientTransform="matrix(.53558 0 0 1.349 -6.6283 -15.344)" gradientUnits="userSpaceOnUse" xlink:href="#a" spreadMethod="reflect"/>
  <linearGradient id="ao" x1="2.5559" x2="32.175" gradientUnits="userSpaceOnUse" xlink:href="#a"/>
  <linearGradient id="an" x1="195.83" x2="287.52" y1="409.84" y2="403.6" gradientTransform="matrix(1.0703 0 0 .67504 -6.6283 -15.344)" gradientUnits="userSpaceOnUse" xlink:href="#a" spreadMethod="reflect"/>
  <linearGradient id="am" x1="14.905" x2="58.366" gradientUnits="userSpaceOnUse" xlink:href="#a"/>
  <linearGradient id="al" x1="75.936" x2="86.819" gradientUnits="userSpaceOnUse" xlink:href="#a"/>
  <linearGradient id="ak" x1="54.751" x2="64.091" gradientUnits="userSpaceOnUse" xlink:href="#a"/>
  <linearGradient id="aj" x1="44.672" x2="47.837" gradientUnits="userSpaceOnUse" xlink:href="#a"/>
  <linearGradient id="ai" x1="34.275" x2="35.675" gradientUnits="userSpaceOnUse" xlink:href="#a"/>
  <linearGradient id="ah" x1="58.428" x2="45.542" y1="718.17" y2="680.09" gradientTransform="matrix(1.9167 0 0 .37696 -6.6283 -15.344)" gradientUnits="userSpaceOnUse" xlink:href="#a" spreadMethod="reflect"/>
  <linearGradient id="ag" x1="99.083" x2="119.72" gradientUnits="userSpaceOnUse" xlink:href="#a"/>
  <linearGradient id="af" x1="187.3" x2="154.31" y1="345.81" y2="358.53" gradientTransform="matrix(1.0514 0 0 .68717 -6.6283 -15.344)" gradientUnits="userSpaceOnUse" xlink:href="#a" spreadMethod="reflect"/>
  <linearGradient id="ae" x1="188.44" x2="242.41" gradientUnits="userSpaceOnUse" xlink:href="#a"/>
  <linearGradient id="ad" x1="328.27" x2="335.63" gradientUnits="userSpaceOnUse" xlink:href="#a" spreadMethod="reflect"/>
  <linearGradient id="ac" x1="506.84" x2="527.88" y1="327.09" y2="325.34" gradientTransform="matrix(.88793 0 0 .81369 -6.6283 -15.344)" gradientUnits="userSpaceOnUse" xlink:href="#a" spreadMethod="reflect"/>
  <linearGradient id="by" x1="299.91" x2="303.93" y1="529.85" y2="467.47" gradientTransform="matrix(1.1011 0 0 .65614 -6.6283 -15.344)" gradientUnits="userSpaceOnUse" xlink:href="#a" spreadMethod="reflect"/>
  <radialGradient id="t" cx="451.17" cy="557.77" r="45.406" gradientTransform="matrix(.8178 0 0 .88347 -6.6283 -15.344)" gradientUnits="userSpaceOnUse" xlink:href="#b" spreadMethod="reflect"/>
  <radialGradient id="s" cx="278.74" cy="668.77" r="29.226" gradientTransform="matrix(1.0479 0 0 .68949 -6.6283 -15.344)" gradientUnits="userSpaceOnUse" xlink:href="#b" spreadMethod="reflect"/>
  <radialGradient id="r" cx="434.66" cy="107.65" r="85.421" gradientTransform="matrix(.77318 0 0 .93445 -6.6283 -15.344)" gradientUnits="userSpaceOnUse" xlink:href="#a"/>
  <radialGradient id="q" cx="374.12" cy="186.3" r="99.433" gradientTransform="matrix(1.0249 0 0 .70493 -6.6283 -15.344)" gradientUnits="userSpaceOnUse" xlink:href="#e" spreadMethod="reflect"/>
  <radialGradient id="p" cx="68.858" cy="551.71" r="32.186" gradientTransform="scale(.8871 1.1273)" gradientUnits="userSpaceOnUse" xlink:href="#a"/>
  <radialGradient id="o" cx="58.447" cy="365.7" r="78.994" gradientTransform="matrix(.85379 0 0 .84623 -6.6283 -15.344)" gradientUnits="userSpaceOnUse" xlink:href="#a" spreadMethod="reflect"/>
  <radialGradient id="h" cx="148.2" cy="655.54" r="10.867" gradientUnits="userSpaceOnUse" xlink:href="#d" spreadMethod="reflect"/>
  <radialGradient id="g" cx="151.89" cy="604.88" r="10.938" gradientUnits="userSpaceOnUse" xlink:href="#d" spreadMethod="reflect"/>
  <radialGradient id="f" cx="148.52" cy="657.77" r="10.938" gradientUnits="userSpaceOnUse" xlink:href="#d" spreadMethod="reflect"/>
  <radialGradient id="n" cx="545.24" cy="882.88" r="43.695" gradientUnits="userSpaceOnUse" xlink:href="#c" spreadMethod="reflect"/>
  <radialGradient id="m" cx="413.3" cy="352.85" r="11.728" gradientUnits="userSpaceOnUse" xlink:href="#a" spreadMethod="reflect"/>
  <radialGradient id="l" cx="503.56" cy="377.45" r="33.807" gradientUnits="userSpaceOnUse" xlink:href="#c" spreadMethod="reflect"/>
  <radialGradient id="k" cx="43.314" cy="551.61" r="10.643" gradientTransform="matrix(1.2654 0 0 .57094 -6.6283 -15.344)" gradientUnits="userSpaceOnUse" xlink:href="#a" spreadMethod="reflect"/>
 </defs>
 <path d="m313.23 269.39-29.831 33.09 12.342 56.302 30.725 4.5426 26.344-4.7175 29.375-8.2867 25.582-21.694 21.813-21.598-15.404-22.146-43.579-27.156-57.366 11.664z" fill="url(#bp)" fill-rule="evenodd" stroke="#000" stroke-width="1.3529"/>
 <path d="m420.36 673.17-13.382-64.233-9.3674-70.924v-52.19l42.822 95.012 1.3381 68.248-21.411 24.088z" fill="url(#av)" fill-rule="evenodd" stroke="#000" stroke-width=".85"/>
 <path d="m334.71 765.24-1.3382 43.358 16.058 22.482 29.44-1.6065 16.058-24.087 2.6763-33.723-28.102-28.905-24.088 1.6058-10.706 20.876z" fill="url(#bo)" fill-rule="evenodd" stroke="#000" stroke-width=".93113"/>
 <path d="m322.67 733.39 12.044 56.204 1.3382 1.3388 13.382-32.117 25.426-1.3382 22.749 32.116 6.691-53.528-21.411-40.146-44.161 8.0291-16.058 29.44z" fill="url(#v)" fill-rule="evenodd" stroke="url(#aw)" stroke-width="4.3562"/>
 <path d="m30.1 247.81 50.938-31.643 57.112 38.589-13.12 36.274-25.469 18.523-13.152-0.60546-30.84-33.353-1.6639-8.1429-23.805-19.642z" fill="#000300" fill-opacity=".9848" fill-rule="evenodd"/>
 <path d="m295.82 287.62c2.8146 1.6248-4.63 8.3946-3.5985 18.967 1.212 12.421 5.47 26.056 11.667 36.632 3.5513 6.0607 10.975 11 17.579 13.279 6.662 2.2988 20.225-3.6893 22.219 0.45382 2.6738 5.5545-5.1079 19.214-8.2143 28.639s-6.3028 18.94-10.426 27.918c-2.0064 4.3682-8.3507 11.174-7.9632 12.119 0.32691 0.7973 7.2833-8.0054 10.106-6.8919 4.5415 1.7912 11.137 9.3352 11.987 15.606 3.1468 23.206 2.7369 49.106 0.00416 72.825-1.1079 9.6162-5.65 21.882-11.526 27.182-3.1378 2.8296-10.739-3.4726-15.516-2.7954-3.0194 0.42806-7.0104 8.2415-7.8722 6.1113-3.0654-7.5774-2.4826-23.506-3.9095-35.234-0.54883-4.5117 0.85799-10.232-2.0178-13.487-10.234-11.585-28.038-18.684-37.312-31.034-5.6119-7.4723-7.348-18.842-7.3471-28.431 0.00144-14.936 5.1938-30.055 7.3541-45.145 2.3985-16.753 3.5216-33.712 6.3225-50.386 2.0866-12.421 2.9055-26.011 8.3401-36.899 4.4992-9.0146 21.771-25.905 21.461-22.81l-1.3382 13.382z" fill="url(#bj)" fill-rule="evenodd"/>
 <path d="m317.32 510.27c-10.056 5.5874-16.885 34.424-15.885 52.508 0.53313 9.6336 5.0746 23.023 11.312 27.587 4.3981 3.2187 16.468 0.80529 20.594-4.2379 12.808-15.656 34.609-44.075 30.207-57.861-3.9968-12.518-66.959-24.906-55.402-21.054l9.1745 3.0581z" fill="url(#br)" fill-rule="evenodd" stroke="#000" stroke-width="1.3529"/>
 <path d="m263.7 213.05 14.84 37.242 18.221 33.479-4.9081 20.094 32.509 60.672 18.696 11.843 21.906 13.699 25.26-29.936 10.973-22.545 21.485-14.687-0.67633-7.0275 4.33-0.221 5.8052-5.8714-6.6956-13.315 20.983-59.476 20.716-41.874-203.44 17.925z" fill="url(#bx)" fill-rule="evenodd"/>
 <path d="m420.24 220.43-23.754 83.705 8.2952 21.492 23.377-17.344-5.2788-11.689 14.328-45.623 4.9017-11.311-8.2951-10.934-4.5246-16.213-9.0492 7.918z" fill-opacity=".6294" fill-rule="evenodd"/>
 <path d="m419.72 258.51 2.5209 22.872-25.744 25.108-57.425 31.396-48.942-43.449-1.1004-23.009 130.69-12.918z" fill="url(#by)" fill-rule="evenodd"/>
 <path d="m419.3 243.81 2.5636 22.872-26.181 25.108-58.4 31.396-49.773-43.449-1.1191-23.009 132.91-12.918z" fill="url(#bm)" fill-rule="evenodd"/>
 <path d="m263.72 198.95 171.04 13.927-12.895 39.462-25.182 20.829-60.153 33.658-54.429-44.281-18.381-63.594z" fill="url(#an)" fill-rule="evenodd"/>
 <path d="m426.5 230.1-33.624 32.558-57.773 26.434-44.872-31.83-6.5367-20.791 61.465 11.65 82.848-22.923-1.5082 4.9016z" fill-opacity=".4721" fill-rule="evenodd"/>
 <path d="m317.31 682.54 6.691-34.793 16.058-100.36-10.705-44.161-32.117 93.674-1.3381 61.557 21.411 24.088z" fill="url(#at)" fill-rule="evenodd" stroke="#000" stroke-width=".85"/>
 <path d="m239.81 97.819c-14.128 12.702-29.892 24.13-42.385 38.105-5.6208 6.2874-9.7388 14.847-11.958 22.683-1.0534 3.7199 3.4831 9.986 2.1405 11.984-1.0336 1.5377-6.4683-2.5226-9.2694-1.3776-12.39 5.0644-33.104 6.4932-44.793 13.831-17.231 10.817-54.017 25.413-71.33 36.03-7.3027 4.4779 55.498 25.084 58.498 28.947 27.556 34.498-32.503 61.728-17.951 56.029 24.481-9.5877 37.495-4.421 59.117-17.992 8.3624-5.2485 46.807-69.299 50.712-78.263 2.0166-4.6293-2.5453-12.896 0.2397-15.77 3.1138-3.2121 12.61 0.56976 17.457-2.4856 16.649-10.496 45.505-23.465 47.031-38.167 1.6479-15.871-25.005-35.703-37.508-53.554z" fill="url(#bf)" fill-rule="evenodd"/>
 <path d="m364.75 360.42 38.386-39.553 19.538-10.89 20.717-5.4143 8.5381 23.16-1.7049 39.063-26.547 64.921-25.978 43.747 23.078 198.06 15.556-60.279 11.178 60.152-38.632 73.841-29.817-61.938-37.143 0.70592-23.412 38.333 8.0948 25.5-32.127-68.441 3.4638-64.565 19.266 51.686 16.956-196.57 1.4425-21.792 10.792-51.947 18.355-37.784z" fill="url(#bl)" fill-rule="evenodd" stroke="#000" stroke-width="1.3529"/>
 <path d="m333.54 468.24c3.9612 4.7942 15.255 5.8766 23.145 6.5362 11.655 0.97444 26.999 5.0195 35.49-1.634 17.227-13.5 30.296-37.922 41.661-58.826 8.1794-15.045 13.396-32.287 16.973-49.022 2.5943-12.134 1.5397-25.06 1.543-37.583 0.00229-8.6743 3.1121-21.414-1.526-26.01-4.7593-4.7155-25.926 6.3538-33.357 10.121-21.114 12.72-32.065 21.376-50.598 43.513-7.0457 8.4162-16.092 25.65-19.445 36.104-5.9056 18.415-8.8797 38.033-12.344 57.192-1.1647 6.441-4.7826 15.688-1.543 19.609z" fill="url(#bk)" fill-rule="evenodd"/>
 <path d="m357.46 511.44 2.6764 122.69" fill="url(#ar)" fill-rule="evenodd" stroke="url(#as)" stroke-width="12.963"/>
 <path d="m429.57 190.91c4.7298 17.181-0.47472 41.418 14.19 51.543l57.078 39.409-19.141 17.398-24.956 48.767-38.801 86.127 0.81813 41.11 4.0059 44.015 32.066 1.5783 46.603 3.1408 12.49-14.021 52.464-107.85 12.05-37.992 5.4058-31.691 0.68306-28.38c-0.74963-6.0812-6.7017-14.611-13.81-17.019-6.5405-1.0804-9.6127-4.6092-20.777-5.6895l13.186-33.245c5.5322-13.948-10.787-28.319-18.659-40.967-9.1845-14.757-18-39.201-32.51-41.251-23.788-3.3607-54.923 16.679-82.385 25.018z" fill="url(#bi)" fill-rule="evenodd"/>
 <path d="m267.09 203.99c14.21 8.292 27.657 18.34 42.631 24.876 14.696 6.4149 30.63 12.402 46.381 13.977 14.867 1.4869 31.427-0.19074 45.472-4.7902 10.369-3.3958 17.768-14.452 27.77-19.196 8.0492-3.8179 17.421-6.0174 26.382-6.4894 17.343-0.91341 37.232 7.5954 52.531 2.3332 13.924-4.7892 24.959-20.453 35.14-32.488 6.457-7.6327 14.84-17.213 14.774-26.514-0.10456-14.737-7.2474-32.283-15.286-45.6-6.5164-10.795-17.632-21.075-28.378-26.735-6.1447-3.2367-15.742-2.4346-22.294 0.04369-7.2904 2.7575-12.029 12.204-19.234 15.664-5.9934 2.8784-14.133 5.3001-20.361 3.3516-12.797-4.0038-24.617-13.906-36.714-21.208-9.2127-5.5614-17.445-12.952-27.214-17.382-28.364-12.864-60.321-19.763-87.185-34.501-10.838-5.9458-15.458-23.224-25.92-27.551-9.1394-3.7797-23.637-0.99181-32.885 3.2308-6.6074 3.0169-10.299 11.971-14.682 18.488-6.64 9.8723-14.209 19.733-18.387 30.678-3.7027 9.701-5.6346 21.159-5.254 31.261 0.18691 4.9613 3.7121 9.9248 6.9564 13.928 10.828 13.362 27.505 23.276 35.261 38.169 8.8828 17.057 8.8507 38.863 14.655 57.682 1.0276 3.3322 3.8932 5.8477 5.8399 8.7717z" fill="url(#q)" fill-rule="evenodd"/>
 <path d="m526.84 207.88c15.152 10.759 20.806 29.586 22.389 46.8-7.6894 4.3035-22.163 11.834-29.853 16.138" fill="none" stroke="url(#bn)" stroke-linecap="round" stroke-width="2.3276"/>
 <path d="m497.71 283.56c9.2946-4.201 18.88-7.7988 27.884-12.603 7.6496-4.0815 21.791-13.028 29.012-13.442 5.4901-0.31484 14.424 6.5993 10.857 17.376-1.1308 3.2224 7.1231 8.825 0.86378 9.6254-9.858 1.3886-32.73-7.976-43.741-7.4045-8.408 0.43647-16.584 4.2985-24.875 6.4478z" fill="url(#bu)" fill-rule="evenodd"/>
 <path d="m435.38 213.33c1.0287-29.413-1.6714-60.11 3.0861-88.24 1.4146-8.3647 13.002-13.529 15.43-21.243 1.6866-5.3585 1.9788-15.196-3.0861-17.975-37.625-20.643-96.238-44.504-133.25-41.264-25.219 2.2072-34.91 33.35-53.451 57.605-7.6902 10.06-16.45 22.119-16.973 34.315-1.0195 23.753 5.3643 51.784 12.344 73.533 6.3626 21.164 13.039 36.643 25.579 43.149l47.587 24.688 48.733-17.914c7.3818-2.7137 20.667-16.934 27.16-21.256 11.509-7.6611 16.559-15.594 26.846-25.399z" fill="url(#bq)" fill-rule="evenodd" stroke="url(#bg)" stroke-width="3.2938"/>
 <path d="m368.92 80.699c6.6533 1.8541 12.431 11.215 14.31 17.426 1.7992 5.9489-0.84048 13.34-3.2765 19.054-2.1919 5.1416-6.5406 9.461-10.608 13.513-6.1934 6.1705-12.419 12.841-20.173 17.154-8.2224 4.5729-13.136 9.0093-22.718 10.762-4.1931 0.76713-14.139-1.7701-17.708-4.1669-5.6957-3.8249-11.414-9.7407-15.124-15.758-3.1839-5.1637-5.9396-11.213-6.4578-16.82-0.73865-7.9921-1.1407-17.589 2.6874-23.976 4.8178-8.0393 13.415-17.167 23.25-19.305 16.522-3.5914 39.096-2.5432 55.819 2.1169z" fill="#000300" fill-opacity=".298" fill-rule="evenodd"/>
 <path d="m281.62 53.716 87.777 1.0792-2.7368 33.821-23.833 32.602-6.8408 11.353 4.6239 3.1363-12.541 5.9787-16.673 0.22287-8.7095-11.896-17.317-30.55-3.75-45.747z" fill="url(#bw)" fill-rule="evenodd"/>
 <path d="m328.36 122.16 8.9296-5.6146-2.3648-13.993 17.188-7.7376 9.0291-9.1299 1.4885-24.795-21.542 28.066-10.084 5.3903-28.853 1.594-6.9737-3.4367-6.695-7.089-1.6658-8.4962-3.2548-5.2119 1.9378 18.743 12.751 12.082-0.92345 14.037 6.6118 3.6654 8.434 24.261-23.904-30.061-8.2871-39.68 3.8025-30.832c0.57842-4.6902 5.9708-7.9698 10.152-9.8958 9.2484-4.2598 19.919-7.0901 30.137-8.6615 7.6041-1.1694 15.731-0.80742 23.33 0.43911 7.9199 1.299 17.294 2.6618 23.228 7.1973 4.6854 3.5811 8.9757 10.762 8.6297 17.152l-1.5454 28.55c-0.19107 3.5295 0.44735 7.439-1.2714 10.528l-7.9976 14.372-3.2266 16.289-23.197 16.527-13.839 8.6391-0.02703-22.899z" fill="url(#be)" fill-rule="evenodd" stroke="url(#r)" stroke-opacity=".9695" stroke-width="1.8806"/>
 <path d="m178.63 167.56 17.215 18.115 8.3516 25.878 5.8542-1.6073 2.7239-5.0774-1.5862-12.485-15.204-15.883-10.042-10.567-7.3122 1.6266z" fill="url(#bs)" fill-rule="evenodd"/>
 <path d="m254.83 427.96 5.3894 28.974 14.438 8.98 30.939-21.817 10.483-18.485-23.58 17.132-18.928-1.2756-18.742-13.508z" fill="url(#s)" fill-rule="evenodd"/>
 <path d="m398.41 487.94-4.3303-15.978-10.088-7.5091-30.567-2.6489-4.7221 22.995 51.046-2.2109-1.3382 5.3528z" fill="url(#au)" fill-rule="evenodd" stroke="#000" stroke-width=".84405"/>
 <path d="m507.91 375.56 16.093-36.868 12.064-32.682 12.532-25.785-40.653-1.6361-11.227 21.481-18.192 39.759-24.549 46.495-16.908 38.488c-0.67694 1.5408 11.044 1.5168 21.452 2.0014 10.429 0.48561 25.662 1.6717 27.098-1.4068l10.9-23.38 11.39-26.467v9e-5z" fill="url(#bv)" fill-rule="evenodd"/>
 <path d="m387.55 474.78" fill="none" stroke="#000" stroke-width="1.0081"/>
 <path d="m131.73 264.77 54.527-23.926 26.932-37.333-10.018 1.9385-10.733 12.38-14.787 13.957-29.52 11.949-22.574 6.3705 6.1743 14.664z" fill="url(#bt)" fill-rule="evenodd"/>
 <path d="m421.79 432.9c11.83-1.594 39.621 0.11619 51.449 0.68782 31.21 1.4943 27.868 4.4298 27.519 12.589-1.0569 24.769-0.37934 73.412-4.9043 73.082-5.6809 2.3236-48.935-2.6987-70.801-2.8238" fill="none" stroke="url(#bh)" stroke-width="1.0081"/>
 <g transform="matrix(1.2878 -.050209 0 1.0964 378.84 -202.52)" fill="url(#p)" font-size="12" stroke="#020074" stroke-linecap="round" stroke-linejoin="round" stroke-opacity=".9061" stroke-width="1.25">
  <path transform="matrix(.76065 .018508 -.01383 .98123 54.471 69.675)" d="m53.833 589.15a7.5115 7.5115 0 1 1 -15.023 0 7.5115 7.5115 0 1 1 15.023 0z"/>
  <path transform="matrix(.76065 .018508 -.01383 .98123 35.443 67.983)" d="m53.833 589.15a7.5115 7.5115 0 1 1 -15.023 0 7.5115 7.5115 0 1 1 15.023 0z"/>
  <path transform="matrix(.76065 .018508 -.01383 .98123 14.51 66.245)" d="m53.833 589.15a7.5115 7.5115 0 1 1 -15.023 0 7.5115 7.5115 0 1 1 15.023 0z"/>
  <path transform="matrix(.76065 .018508 -.01383 .98123 54.817 45.106)" d="m53.833 589.15a7.5115 7.5115 0 1 1 -15.023 0 7.5115 7.5115 0 1 1 15.023 0z"/>
  <path transform="matrix(.76065 .018508 -.01383 .98123 34.837 43.391)" d="m53.833 589.15a7.5115 7.5115 0 1 1 -15.023 0 7.5115 7.5115 0 1 1 15.023 0z"/>
  <path transform="matrix(.76065 .018508 -.01383 .98123 14.856 41.676)" d="m53.833 589.15a7.5115 7.5115 0 1 1 -15.023 0 7.5115 7.5115 0 1 1 15.023 0z"/>
  <path transform="matrix(.76065 .018508 -.01383 .98123 54.211 20.515)" d="m53.833 589.15a7.5115 7.5115 0 1 1 -15.023 0 7.5115 7.5115 0 1 1 15.023 0z"/>
  <path transform="matrix(.76065 .018508 -.01383 .98123 36.118 20.074)" d="m53.833 589.15a7.5115 7.5115 0 1 1 -15.023 0 7.5115 7.5115 0 1 1 15.023 0z"/>
  <path transform="matrix(.76065 .018508 -.01383 .98123 17.09 18.383)" d="m53.833 589.15a7.5115 7.5115 0 1 1 -15.023 0 7.5115 7.5115 0 1 1 15.023 0z"/>
 </g>
 <path d="m502.36 431.38 57.804-143.85c2.3496-5.8478 17.742 6.2634 20.231 11.631 2.9055 6.2635 1.9269 14.692 2.8903 22.037v3.6729" fill="none" stroke="url(#bd)" stroke-linecap="round" stroke-width="2.3943"/>
 <path transform="matrix(1.1125 0 0 .57184 -94.197 -56.592)" d="m566.6 285.91a22.113 32.127 0 1 1 -44.226 0 22.113 32.127 0 1 1 44.226 0z" fill="url(#ab)" fill-opacity=".9014"/>
 <path transform="matrix(1.0121 0 0 .51094 -293.19 -126.13)" d="m566.6 285.91a22.113 32.127 0 1 1 -44.226 0 22.113 32.127 0 1 1 44.226 0z" fill="url(#aa)" fill-opacity=".9014"/>
 <path d="m541.83 121.78c10.704 27.523-18.349 67.279-18.349 67.279s15.291-24.465 9.1746-38.227 9.1743-27.523 9.1743-29.052z" fill="url(#z)" fill-rule="evenodd"/>
 <path d="m232.01 111.07s-27.834-23.628-20.51-49.074 20.51-29.081 20.51-29.081-13.185 16.358 4.395 18.176-13.185 3.6352-16.115 12.723 13.185 49.074 11.72 47.256z" fill="url(#y)" fill-rule="evenodd"/>
 <path transform="matrix(.52097 .21604 0 .45664 88.604 -107.47)" d="m430.04 154.15a25.153 26.776 0 1 1 -50.307 0 25.153 26.776 0 1 1 50.307 0z" fill="url(#x)"/>
 <path d="m73.32 267.88 9.2615-6.9461 37.046-10.805 5.4025 3.0872 4.6307 24.697-18.523 15.436-6.9461-1.5436-3.0872-18.523s-2.3153-5.4025-4.6307-5.4025-20.838 3.0871-23.154 0z" fill="url(#bc)" fill-rule="evenodd"/>
 <path d="m72.548 302.61-32.415 3.0871-6.9461-5.4025 1.5436-13.892 30.1-10.033 6.1743 8.4897 1.5435 17.751z" fill="none" stroke="#000" stroke-width="1.0625"/>
 <path d="m31.643 250.9-17.751 16.979v3.0871l-7.7179 10.805-6.1743 13.892 3.0872 6.9461 4.6307 20.066 14.664 12.349 12.349-5.4026 7.7179 5.4026 7.7179 0.77171 9.2614 1.5436 6.9461-6.9461 6.9461 3.0872 8.4897-3.859 5.4025-8.4896-6.1743-16.208-23.154-47.079-26.241-6.9461z" fill="url(#o)" fill-rule="evenodd"/>
 <path d="m15.436 269.42 29.281 6.1742 13.119-14.421" fill="none" stroke="url(#am)" stroke-width="1.0625"/>
 <path d="m3.0872 294.89 28.556-3.0871v1.5436l-10.805 2.3153-14.664 3.859" fill="none" stroke="url(#ao)" stroke-width="1.0625"/>
 <path d="m20.066 323.45 9.2615-3.8589 3.0872-17.751v-10.805l2.3154-7.7179 19.295-5.4025-11.577 33.959-8.4897 16.208-5.4025-10.033-8.4897 5.4025z" fill="url(#j)" fill-rule="evenodd" stroke="url(#j)" stroke-width="1.0625"/>
 <path d="m42.448 331.17 3.8589-3.1068 8.4897-11.651 8.4897 10.097 14.664-8.544 3.2154-13.68 9.905-4.1852-31.186-36.841-26.408 26.406-3.3773 29.077 3.859 7.7674 8.4897 1.5536v3.1068z" fill="#000300" fill-opacity=".9882" fill-rule="evenodd"/>
 <path d="m45.097 329.08 2.3154 3.8589" fill="none" stroke="url(#aj)" stroke-width=".85"/>
 <path d="m76.361 319.26 10.033 2.3154" fill="none" stroke="url(#al)" stroke-width=".85"/>
 <path d="m63.666 325.6-8.4897 7.7178" fill="none" stroke="url(#ak)" stroke-width=".85"/>
 <path d="m64.058 274.83 11.577-6.1743h21.61l5.4025 23.925-5.4025 6.1743-20.067 6.946-4.6307-3.8589v-15.436l-8.4896-11.577z" fill="url(#u)" fill-rule="evenodd"/>
 <path d="m64.058 274.83-30.289 8.1029-3.0852 11.628 2.5088 10.9 42.393-0.91783-3.0379-18.136-8.4896-11.577z" fill="url(#bb)" fill-rule="evenodd"/>
 <path d="m60.636 216.94 60.92 21.466 0.38692 10.949-12.349 2.3154-26.241 7.7179-20.066-0.7718-32.656-9.2615-3.4721-3.6181 33.477-28.797z" fill="url(#w)" fill-rule="evenodd"/>
 <path d="m405.64 750.79 8.0292-6.691 18.735-49.513-53.528-62.895-34.793 2.6765-44.161 60.219 21.411 46.837 24.088-26.764 30.779-1.3382 29.44 37.47v-9e-5z" fill="url(#ay)" fill-rule="evenodd" stroke="url(#ax)" stroke-width="3.4"/>
 <path d="m406.97 745.44-29.44-34.793-34.793 1.3382-22.749 25.426" fill="none" stroke="#000" stroke-width="1.0625"/>
 <g transform="matrix(.67105 0 0 1.5988 311.75 -447.98)" stroke="#000" stroke-linecap="round" stroke-linejoin="round" stroke-width="1.25">
  <path d="m174.75 631.22a7.8718 8.6589 0 1 1 -15.744 0 7.8718 8.6589 0 1 1 15.744 0z" fill="url(#f)"/>
  <path transform="translate(-3.1487 48.805)" d="m174.75 631.22a7.8718 8.6589 0 1 1 -15.744 0 7.8718 8.6589 0 1 1 15.744 0z" fill="url(#g)"/>
  <path d="m185.77 657.2a10.233 11.02 0 1 1 -20.467 0 10.233 11.02 0 1 1 20.467 0z" fill="url(#h)"/>
 </g>
 <g transform="matrix(-.53684 0 0 1.4774 402.33 -364.35)" stroke="#000" stroke-linecap="round" stroke-linejoin="round" stroke-width="1.25">
  <path d="m174.75 631.22a7.8718 8.6589 0 1 1 -15.744 0 7.8718 8.6589 0 1 1 15.744 0z" fill="url(#f)"/>
  <path transform="translate(-3.1487 48.805)" d="m174.75 631.22a7.8718 8.6589 0 1 1 -15.744 0 7.8718 8.6589 0 1 1 15.744 0z" fill="url(#g)"/>
  <path d="m185.77 657.2a10.233 11.02 0 1 1 -20.467 0 10.233 11.02 0 1 1 20.467 0z" fill="url(#h)"/>
 </g>
 <path transform="matrix(.85 0 0 .85 -49.351 -62.088)" d="m516.39 871.31a33.849 34.636 0 1 1 -67.697 0 33.849 34.636 0 1 1 67.697 0z" fill="url(#n)" stroke="#020074" stroke-linecap="round" stroke-linejoin="round" stroke-opacity=".9061" stroke-width="1.25"/>
 <path d="m405.21 326.52-43.688 125.74" fill="url(#aq)" fill-rule="evenodd" stroke="url(#ap)" stroke-linecap="round" stroke-width="10.336"/>
 <path d="m329.96 471.29-0.3021 19.878 25.868 24.114 40.09-28.659-0.86997-18.941-31.746-23.655-33.041 27.263z" fill="url(#t)" fill-rule="evenodd"/>
 <path transform="matrix(.765 0 0 .75958 8.8555 -54.301)" d="m453.41 352.56a39.359 36.997 0 1 1 -78.718 0 39.359 36.997 0 1 1 78.718 0z" fill="url(#l)" stroke="url(#m)" stroke-linecap="round" stroke-linejoin="round" stroke-opacity=".9061" stroke-width="14.479"/>
 <path transform="matrix(.85 0 0 .85 -23.925 -64.765)" d="m415.63 354.92z" fill="#0d37ff" stroke="#020074" stroke-linecap="round" stroke-linejoin="round" stroke-opacity=".9061" stroke-width="1.25"/>
 <path d="m93.876 271.45-19.577 12.489 3.0379 18.227" fill="none" stroke="url(#ba)" stroke-width="1.0625"/>
 <path d="m66.535 274.83 5.7382 7.0883" fill="none" stroke="url(#az)" stroke-width="1.0625"/>
 <path d="m70.586 286.31-35.779 6.7508-0.67508 9.1135" fill="none" stroke="url(#k)" stroke-width="1.0625"/>
 <path d="m34.806 284.62 0.33753 4.7255" fill="none" stroke="url(#ai)" stroke-width="1.0625"/>
 <path d="m29.406 245.13 3.3754 3.0378 30.041 7.7634h22.278l32.741-16.539" fill="none" stroke="url(#ah)" stroke-width="1.0625"/>
 <path d="m119.19 251.54-19.577 15.189 5.4006 7.7634 4.7255 15.527" fill="none" stroke="url(#ag)" stroke-width="1.0625"/>
 <path d="m123.46 231.37 55.429-22.675 12.597-21.416" fill="none" stroke="url(#af)" stroke-width="1.0625"/>
 <path d="m188.97 159.56 15.117 16.377h7.5584l30.234-35.273" fill="none" stroke="url(#ae)" stroke-width="1.0625"/>
 <path d="m328.8 276.72 6.2987 25.195" fill="none" stroke="url(#ad)" stroke-width="1.0625"/>
 <path d="m442.18 214.99 11.338 18.896 47.87 35.273" fill="none" stroke="url(#ac)" stroke-width="1.0625"/>
</svg>
